<svg width="720" height="560" viewBox="0 0 720 560" xmlns="http://www.w3.org/2000/svg" font-family="'Segoe UI', 'Apple SD Gothic Neo', sans-serif">
  <rect width="720" height="560" fill="#ffffff"/>
  <defs>
    <marker id="arrow-gc2" viewBox="0 0 10 10" refX="8" refY="5" markerWidth="6" markerHeight="6" orient="auto-start-reverse">
      <path d="M2 1L8 5L2 9" fill="none" stroke="#94a3b8" stroke-width="1.5" stroke-linecap="round" stroke-linejoin="round"/>
    </marker>
  </defs>

  <g>
    <rect x="120" y="20" width="480" height="76" rx="10" fill="#f1f5f9" stroke="#94a3b8"/>
    <text x="360" y="50" text-anchor="middle" font-size="14" font-weight="700" fill="#1e293b">① 입력 이미지</text>
    <text x="360" y="72" text-anchor="middle" font-size="11" fill="#64748b">흉부 X-ray를 모델에 입력</text>
  </g>
  <line x1="360" y1="96" x2="360" y2="130" stroke="#94a3b8" stroke-width="1.5" marker-end="url(#arrow-gc2)"/>

  <g>
    <rect x="120" y="130" width="480" height="76" rx="10" fill="#dbeafe" stroke="#3b82f6"/>
    <text x="360" y="160" text-anchor="middle" font-size="14" font-weight="700" fill="#1e293b">② 모델 추론</text>
    <text x="360" y="182" text-anchor="middle" font-size="11" fill="#334155">NORMAL 또는 PNEUMONIA로 분류</text>
  </g>
  <line x1="360" y1="206" x2="360" y2="240" stroke="#94a3b8" stroke-width="1.5" marker-end="url(#arrow-gc2)"/>

  <g>
    <rect x="120" y="240" width="480" height="76" rx="10" fill="#ccfbf1" stroke="#14b8a6"/>
    <text x="360" y="270" text-anchor="middle" font-size="14" font-weight="700" fill="#1e293b">③ 기울기 계산</text>
    <text x="360" y="292" text-anchor="middle" font-size="11" fill="#334155">예측 클래스에 대한 레이어별 기울기 추출 (역전파)</text>
  </g>
  <line x1="360" y1="316" x2="360" y2="350" stroke="#94a3b8" stroke-width="1.5" marker-end="url(#arrow-gc2)"/>

  <g>
    <rect x="120" y="350" width="480" height="76" rx="10" fill="#ede9fe" stroke="#8b5cf6"/>
    <text x="360" y="380" text-anchor="middle" font-size="14" font-weight="700" fill="#1e293b">④ 히트맵 생성</text>
    <text x="360" y="402" text-anchor="middle" font-size="11" fill="#334155">중요 영역을 빨강(높음)~파랑(낮음)으로 표시</text>
  </g>
  <line x1="360" y1="426" x2="360" y2="460" stroke="#94a3b8" stroke-width="1.5" marker-end="url(#arrow-gc2)"/>

  <g>
    <rect x="120" y="460" width="480" height="76" rx="10" fill="#fef3c7" stroke="#f59e0b"/>
    <text x="360" y="490" text-anchor="middle" font-size="14" font-weight="700" fill="#1e293b">⑤ 원본 오버레이</text>
    <text x="360" y="512" text-anchor="middle" font-size="11" fill="#92400e">히트맵을 원본 X-ray 위에 겹쳐 시각화 → 의사가 검토</text>
  </g>
</svg>
